<svg xmlns="http://www.w3.org/2000/svg" xmlns:xlink="http://www.w3.org/1999/xlink" version="1.1" x="0px" y="0px" viewBox="0 0 100 100" enable-background="new 0 0 100 100" xml:space="preserve"><g><path fill="none" d="M58.79,24.9l-6.093,2.669c-1.094,1.094-3.491,1.094-4.589,0l-7.685-3.437   c-0.679,2.666,0.004,6.756,0.006,6.756c-0.691-0.482-1.325-0.733-1.842-0.863c0.762,8.273,5.612,14.651,11.485,14.651   c5.97,0,10.881-6.59,11.518-15.06c0.08-0.547,0.123-1.107,0.131-1.674l-1.862,2.139C60.402,28.878,59.634,26.694,58.79,24.9z"></path><path d="M55.036,54.125h19.532c-2.601-5.29-7.821-9.06-13.968-9.622C60.566,46.092,57.792,50.313,55.036,54.125z"></path><path d="M39.545,44.504c-6.149,0.562-11.366,4.331-13.972,9.621h19.051C42.11,50.313,39.579,46.092,39.545,44.504z"></path><circle cx="50" cy="73.043" r="1.735"></circle><path d="M77.413,92.207H22.588c-0.771,0-1.396,0.626-1.396,1.397c0,0.771,0.625,1.396,1.396,1.396h54.825   c0.771,0,1.396-0.626,1.396-1.396C78.808,92.833,78.183,92.207,77.413,92.207z"></path><path d="M25.758,91.381h48.487c1.801,0,3.264-1.46,3.264-3.265l6.529-30.727c0-1.803-1.462-3.265-3.265-3.265h-6.204   c0.088,0.175,0.173,0.351,0.254,0.528h5.654c1.785,0,3.234,1.431,3.234,3.195l-6.531,29.807c0,1.766-1.447,3.197-3.233,3.197   H26.053c-1.786,0-3.233-1.433-3.233-3.197l-6.53-29.805c0-1.767,1.447-3.195,3.232-3.195h5.797c0.081-0.18,0.168-0.354,0.254-0.528   h-6.346c-1.803,0-3.265,1.461-3.265,3.265l6.529,30.727C22.492,89.921,23.955,91.381,25.758,91.381z"></path><path d="M44.975,54.653c-0.117-0.176-0.234-0.351-0.353-0.527H25.573c-0.086,0.175-0.173,0.352-0.253,0.527H44.975z"></path><path d="M55.035,54.126h-3.6l-0.181-2.579c1.22-0.63,2.165-1.941,2.165-3.274c0,0-1.814,0.801-3.661,0.801   c-1.85,0-3.662-0.801-3.662-0.801c0,1.333,0.944,2.644,2.163,3.274l-0.181,2.579h-3.455c0.117,0.178,0.233,0.354,0.353,0.527h3.066   h3.429h0.001h3.179h20.172c-0.081-0.178-0.166-0.354-0.254-0.527H55.035z"></path><path d="M32.247,14.827l-0.092,1.266c-0.489,0.083-0.866,0.511-0.866,1.028c0,0.465,0.304,0.856,0.724,0.993l-0.839,11.757   l1.158,3.476l1.158-3.476l-0.84-11.757c0.419-0.138,0.724-0.528,0.724-0.993c0-0.518-0.375-0.945-0.866-1.028l-0.085-1.165   l2.009,1.163l0.081,0.048l3.804,2.201l-0.247,3.139c-0.536,1.195-0.923,2.478-1.119,3.829c-0.101,0.691-0.15,1.398-0.15,2.12   c0,0.292,0.01,0.582,0.025,0.871c0.024,0.42,0.064,0.837,0.125,1.248c0.01,0.125,0.021,0.249,0.03,0.373   c0.838,9.47,6.379,16.788,13.092,16.788c6.798,0,12.393-7.507,13.119-17.156c0.1-0.693,0.152-1.403,0.152-2.126   c0-0.723-0.053-1.432-0.152-2.125c-0.206-1.419-0.625-2.762-1.204-4.007l-0.246-2.451l3.89-2.251l0.869-0.501l3.619-2.092   c0.227-0.229,0.227-0.596,0-0.822L50.875,5.17c-0.226-0.227-0.592-0.227-0.817,0l-19.244,8.006c-0.229,0.226-0.229,0.593,0,0.822   L32.247,14.827z M61.591,29.617c-0.637,8.47-5.548,15.06-11.518,15.06c-5.873,0-10.724-6.378-11.485-14.651   c0.517,0.13,1.15,0.381,1.842,0.863c-0.001,0-0.685-4.09-0.006-6.756l7.685,3.437c1.098,1.094,3.495,1.094,4.589,0L58.79,24.9   c0.844,1.794,1.612,3.978,1.069,5.181l1.862-2.139C61.714,28.509,61.671,29.069,61.591,29.617z"></path></g></svg>