<svg xmlns:dc="http://purl.org/dc/elements/1.1/" xmlns:cc="http://creativecommons.org/ns#" xmlns:rdf="http://www.w3.org/1999/02/22-rdf-syntax-ns#" xmlns:svg="http://www.w3.org/2000/svg" xmlns="http://www.w3.org/2000/svg" xmlns:sodipodi="http://sodipodi.sourceforge.net/DTD/sodipodi-0.dtd" xmlns:inkscape="http://www.inkscape.org/namespaces/inkscape" version="1.1" x="0px" y="0px" viewBox="0 0 100 100"><g transform="translate(0,-952.36218)"><path d="m 32.024242,995.7884 c 6.844126,0 12.377034,-5.50336 12.377034,-12.34752 0,-6.80175 -5.532908,-12.33461 -12.377034,-12.33461 -6.801708,0 -12.334616,5.53286 -12.334616,12.33461 0,6.84416 5.534686,12.34752 12.334616,12.34752 z" style="" fill="#000000" fill-opacity="1"></path><path d="m 60.09873,1033.8024 18.004737,-19.8094 c 4.519058,-4.9719 -2.065581,-10.9568 -6.58464,-5.9848 l -18.004825,19.8094 6.584728,5.9848 z" style="color:#000000;enable-background:accumulate;" fill="#000000" fill-opacity="1" fill-rule="nonzero" stroke="none" marker="none" visibility="visible" display="inline" overflow="visible"></path><path style="color:#000000;enable-background:accumulate;" d="m 2.8682326,955.02328 0,50.07172 c 0.7776608,-1.2133 1.7089862,-2.3315 2.7616072,-3.3197 l 0,-43.9904 89.1085422,0 0,67.7519 -24.106773,0 c -0.851469,0.9227 -1.707207,1.8405 -2.560189,2.7617 l 29.428569,0 0,-73.27522 -94.6317564,0 z" fill="#000000" fill-opacity="1" fill-rule="nonzero" stroke="none" marker="none" visibility="visible" display="inline" overflow="visible"></path><path style="" d="m 16.578539,999.47397 c -7.8484605,0.19984 -14.0785504,6.65813 -14.0785504,14.64813 l 0,15.1775 c 0,0 0.03646,2.7396 0.909005,3.9698 0.9237667,1.3028 2.7098521,1.9964 2.7098521,1.9964 l 17.1566463,6.8466 c 6.240138,2.4905 9.536815,-5.7713 3.296677,-8.2619 l -15.177413,-6.0583 0,-12.7208 3.889282,0 0,12.1224 c 2.74071,1.0926 6.954306,2.5543 9.694482,3.6477 2.94942,0.798 6.054816,2.5611 6.927006,5.6843 1.425756,4.1875 -2.695535,8.8072 -6.984541,8.2849 -2.759295,-0.855 -6.943279,-2.5827 -9.636947,-3.6304 l 0,8.5208 33.559553,0 0.0169,-34.6297 3.797154,0 0,14.8955 c 1.78e-4,6.7981 8.843101,6.7981 8.843013,0 l 0,-15.6377 c -8.9e-5,-7.4962 -5.838992,-14.8207 -14.61362,-14.8207 l -6.44378,-0.005 c -0.178564,0.74214 -4.670589,19.38314 -5.402453,19.38314 -0.304839,0 -1.344922,-13.5938 -1.662744,-13.9117 -0.274605,-0.2745 -1.218913,-0.9435 -1.334784,-0.9435 -0.115871,0 -1.06018,0.669 -1.334785,0.9435 -0.317822,0.3179 -1.357816,13.9117 -1.662744,13.9117 -0.733198,0 -5.24612,-18.7324 -5.408144,-19.40615 l -6.685482,-0.005 c -0.125386,0 -0.249349,-0.004 -0.373935,0 z" fill="#000000" fill-opacity="1"></path><path style="" d="m 68.973133,1001.877 c -2.064514,-0.6733 -4.049171,-3.24494 -5.321085,-6.89473 -0.296658,-0.85144 -0.431915,-1.101 -0.568239,-1.04866 -0.09835,0.0378 -0.698783,0.15843 -1.334073,0.26835 -1.615347,0.27925 -4.496915,0.27715 -5.539399,-0.003 -1.764921,-0.47601 -2.959913,-1.33919 -3.564434,-2.57476 -0.420177,-0.85885 -0.516306,-2.25855 -0.233165,-3.39495 0.393855,-1.581 2.03668,-4.34461 3.496495,-5.88198 l 0.39919,-0.4204 -0.979968,-1.21695 c -1.534157,-1.90527 -2.496518,-3.68007 -2.848666,-5.25359 -0.08092,-0.35992 -0.121385,-1.09329 -0.09204,-1.65268 0.04446,-0.85322 0.114181,-1.12078 0.457793,-1.76547 0.222849,-0.41793 0.625063,-0.94844 0.893976,-1.17892 0.583801,-0.50043 1.680619,-1.03396 2.590958,-1.26025 0.978189,-0.24318 3.966559,-0.2095 5.525348,0.0623 0.693626,0.12096 1.305528,0.22755 1.359684,0.23691 0.05425,0.009 0.275672,-0.47368 0.492207,-1.07339 1.170271,-3.24168 2.875255,-5.59015 4.713807,-6.49294 0.622573,-0.30565 0.829505,-0.34434 1.842376,-0.34434 1.01296,0 1.219891,0.0388 1.842376,0.34434 1.86932,0.91788 3.618234,3.36412 4.776411,6.68086 0.291056,0.83351 0.425157,1.07873 0.561392,1.02646 0.636268,-0.24413 2.691889,-0.46911 4.290962,-0.4696 2.581976,-7.4e-4 4.013601,0.42526 5.219798,1.55345 0.855738,0.80055 1.238388,1.64316 1.302682,2.86935 0.109112,2.08096 -0.883483,4.29299 -3.146392,7.01075 l -0.931058,1.11826 0.481536,0.52239 c 1.463905,1.58814 3.069826,4.35941 3.386937,5.84476 0.07914,0.3718 0.120673,1.12853 0.09159,1.68162 -0.04446,0.85324 -0.114093,1.12078 -0.457793,1.76549 -0.481447,0.90321 -1.121183,1.49383 -2.103552,1.94216 -1.202462,0.54877 -1.878747,0.66195 -3.903777,0.65331 -1.653941,-0.007 -2.28016,-0.0722 -4.362637,-0.45447 -0.05424,-0.0101 -0.275405,0.46841 -0.491585,1.06298 -1.189656,3.27168 -2.876411,5.60176 -4.701446,6.49466 -0.826393,0.4043 -2.302836,0.5187 -3.146214,0.2436 z m 2.127741,-2.25856 c 0.990194,-0.36577 2.352724,-2.18905 3.194767,-4.27492 0.7653,-1.896 0.764944,-1.89214 0.212267,-2.06728 -0.253173,-0.0801 -1.330249,-0.49105 -2.393541,-0.91294 l -1.933258,-0.76709 -1.135056,0.46185 c -0.624263,0.25399 -1.659632,0.63658 -2.300791,0.85019 -0.715501,0.23836 -1.165824,0.45175 -1.165824,0.5524 0,0.29983 0.72555,2.17469 1.202639,3.1076 0.87966,1.7201 1.913517,2.83007 2.925321,3.14068 0.486516,0.14929 0.799181,0.12906 1.393476,-0.0904 z m 13.08791,-7.61061 c 0.829594,-0.28333 1.502677,-0.91506 1.680708,-1.57741 0.365132,-1.35828 -0.814121,-3.88822 -2.967916,-6.36743 l -0.334719,-0.38529 -1.355237,1.1272 c -0.745381,0.61996 -1.64078,1.32387 -1.989816,1.56425 l -0.634578,0.43705 -0.146462,1.22338 c -0.08092,0.67285 -0.253796,1.78331 -0.384873,2.46771 -0.130989,0.68438 -0.204975,1.2777 -0.164158,1.31846 0.04091,0.0408 0.597941,0.16825 1.238032,0.28323 1.54634,0.27778 4.114355,0.23151 5.059108,-0.0911 z m -22.421618,-0.0936 c 0.446766,-0.089 0.837597,-0.18717 0.868632,-0.21816 0.03112,-0.0311 -0.04713,-0.59336 -0.17305,-1.24975 -0.126187,-0.65637 -0.295858,-1.74861 -0.377048,-2.42722 l -0.147618,-1.23385 -0.7918,-0.58737 c -0.435561,-0.32303 -1.332472,-1.05265 -1.993106,-1.62132 l -1.201128,-1.03398 -0.5822,0.62405 c -0.775527,0.83124 -1.686666,2.13541 -2.201105,3.15057 -1.320556,2.60579 -0.681976,4.20888 1.895109,4.75729 0.691669,0.14722 3.669278,0.0457 4.703314,-0.16034 z m 14.093489,-2.03112 c 0.114449,-0.64436 0.179009,-1.20059 0.143528,-1.23608 -0.06847,-0.0683 -2.967383,1.52153 -2.973875,1.63086 -0.0089,0.10939 2.453922,0.93727 2.540448,0.85475 0.04535,-0.043 0.175451,-0.60516 0.289811,-1.24953 z m -9.754951,0.85904 c 0.602387,-0.20493 1.139768,-0.41428 1.194102,-0.46523 0.05424,-0.051 -0.269891,-0.29731 -0.720659,-0.54749 -0.450767,-0.2502 -1.109267,-0.63852 -1.463282,-0.86298 -0.354105,-0.22443 -0.656277,-0.39144 -0.671661,-0.37115 -0.04713,0.0627 0.450945,2.61943 0.510348,2.61943 0.03023,0 0.548676,-0.16773 1.151152,-0.37258 z m 5.829743,-2.52723 c 0.897445,-0.47179 2.250103,-1.24206 3.005888,-1.71167 1.187344,-0.73776 1.388318,-0.90883 1.478578,-1.2586 0.0578,-0.22264 0.08804,-1.83385 0.06758,-3.58048 l -0.03735,-3.1757 -0.300304,-0.22923 c -0.519597,-0.39669 -3.859492,-2.35422 -4.903576,-2.87402 l -0.999888,-0.49781 -1.634199,0.85974 c -2.313418,1.21701 -4.268375,2.43621 -4.442137,2.77035 -0.155977,0.30003 -0.222671,6.25508 -0.07648,6.80196 0.08893,0.33147 2.206173,1.69715 4.505008,2.90566 0.88286,0.46411 1.627618,0.8447 1.655096,0.84572 0.02757,7.4e-4 0.784242,-0.38412 1.681686,-0.85592 z m -2.990948,-3.7916 c -0.481358,-0.25283 -0.755518,-0.50247 -1.01794,-0.92693 -0.810297,-1.31058 -0.432271,-3.06935 0.826926,-3.84787 1.310596,-0.81026 3.069293,-0.43233 3.847843,0.8269 0.810207,1.31057 0.43227,3.06935 -0.826926,3.84785 -0.456726,0.28237 -0.750894,0.36845 -1.376046,0.4026 -0.691936,0.0378 -0.880549,-0.002 -1.453857,-0.30255 z m 11.082711,-1.57894 c 0.73462,-0.61486 0.901713,-0.81168 0.780684,-0.9196 -0.976322,-0.87094 -1.87181,-1.62051 -1.935926,-1.62051 -0.04446,0 -0.08003,0.78694 -0.08003,1.74877 0,1.36565 0.0329,1.72959 0.150108,1.66122 0.0827,-0.0483 0.570729,-0.43962 1.084812,-0.86988 z m -18.291524,-0.92565 c 0,-1.36563 -0.0329,-1.72956 -0.150108,-1.66119 -0.461439,0.2691 -2.003243,1.66481 -1.924721,1.74226 0.39341,0.38807 1.912894,1.66273 1.984746,1.66494 0.0498,0.002 0.09017,-0.78418 0.09017,-1.74601 z m 22.057732,-2.89459 c 1.589736,-2.03109 2.269222,-3.56813 2.182074,-4.93619 -0.04802,-0.76138 -0.07025,-0.80788 -0.599808,-1.28741 -0.819456,-0.74194 -1.674838,-0.96466 -3.700669,-0.96369 -1.497698,7.3e-4 -3.381068,0.20788 -3.703871,0.40743 -0.09924,0.0614 -0.07381,0.40786 0.09355,1.27934 0.126364,0.65737 0.296391,1.75186 0.377759,2.43217 l 0.148062,1.23693 1.211977,0.93855 c 0.666503,0.5162 1.55541,1.24657 1.975232,1.62303 0.897889,0.80519 0.780773,0.84761 2.015693,-0.73016 z M 60.78951,977.9896 61.945463,977.12117 62.089524,975.92 c 0.07914,-0.66065 0.251839,-1.76334 0.38345,-2.45044 0.183455,-0.95786 0.20542,-1.27021 0.09435,-1.3389 -0.288566,-0.17834 -2.644669,-0.47478 -3.773144,-0.47478 -2.081143,0 -3.476397,0.51423 -3.986034,1.46904 -0.684377,1.2822 0.264289,3.73435 2.471262,6.38827 l 0.648718,0.78007 0.852804,-0.71759 c 0.468997,-0.39467 1.372844,-1.10841 2.008579,-1.58607 z m 15.164429,-3.36085 c -0.09213,-0.47896 -0.200973,-1.07354 -0.241613,-1.32129 -0.04091,-0.24773 -0.10102,-0.45044 -0.134278,-0.45044 -0.143527,0 -2.260241,0.75375 -2.348456,0.83629 -0.05336,0.0503 0.432982,0.3924 1.081078,0.76064 0.648095,0.36824 1.286497,0.75245 1.418641,0.85377 0.132056,0.10143 0.274427,0.18595 0.316311,0.18804 0.0418,0.002 5.34e-4,-0.38805 -0.09168,-0.86701 z m -9.887096,-0.0794 c 1.227628,-0.69904 1.422999,-0.84887 1.236076,-0.94795 -0.481181,-0.25501 -2.319021,-0.84957 -2.370243,-0.76677 -0.0747,0.1214 -0.434316,2.03887 -0.434316,2.31801 0,0.12486 0.0249,0.22697 0.05513,0.22697 0.03023,0 0.711321,-0.37363 1.513259,-0.83026 z m 5.413746,-2.63497 c 0.624885,-0.25428 1.666391,-0.63894 2.314308,-0.8548 l 1.178007,-0.39245 -0.0747,-0.37382 c -0.162024,-0.81002 -1.157021,-3.00402 -1.801914,-3.97322 -1.608144,-2.41698 -3.159909,-2.78934 -4.769475,-1.14441 -0.826748,0.84489 -1.512637,1.98595 -2.14357,3.56632 -0.771613,1.93243 -0.863652,1.6971 0.920388,2.35563 0.846312,0.31243 1.890129,0.72411 2.319554,0.91486 0.429426,0.19075 0.812342,0.35073 0.850936,0.3555 0.03824,0.005 0.581579,-0.19933 1.206464,-0.45361 z" fill="#000000" fill-opacity="1"></path></g></svg>